<svg width="40" height="35" viewBox="0 0 40 35" fill="none" xmlns="http://www.w3.org/2000/svg">
<path fill-rule="evenodd" clip-rule="evenodd" d="M17.1136 3.64766H16.977C16.7671 3.63494 16.5571 3.62985 16.3471 3.62477H16.3471H16.3269H15.8918C15.4946 3.62477 15.0898 3.63494 14.6876 3.65528C14.6573 3.65308 14.6269 3.65308 14.5966 3.65528C10.9522 3.86177 7.38171 4.77265 4.08049 6.33806L3.6479 6.54658V28.6877L4.65979 28.3444C5.54773 28.0393 6.49384 27.7646 7.47285 27.5103C10.1193 26.8309 12.8367 26.4699 15.568 26.4347V29.3438C15.2062 29.3463 14.8546 29.3565 14.503 29.3743H14.4195C12.3175 29.4896 10.2317 29.8098 8.19129 30.3304C5.60716 30.9774 3.11433 31.9488 0.771606 33.2217V4.82502C3.20469 3.40588 5.82533 2.34001 8.55557 1.6591C10.9527 1.04019 13.4169 0.722442 15.8918 0.713135H16.3193C16.8303 0.725849 17.3287 0.748736 17.7967 0.784336C19.0297 0.870911 20.2528 1.06576 21.4521 1.36666V4.22998C20.2874 3.95864 19.1032 3.78009 17.9105 3.69597C17.8863 3.69392 17.8621 3.69186 17.8379 3.68979C17.5911 3.66874 17.344 3.64766 17.1136 3.64766ZM22.1528 6.57452C22.7877 6.62283 23.4455 6.64572 24.1108 6.64572C26.7125 6.63621 29.3031 6.30397 31.8239 5.65653C34.4068 5.0071 36.8986 4.03491 39.2411 2.7627V30.6533C36.8067 32.0716 34.1853 33.1375 31.4546 33.8193C29.0571 34.4358 26.5931 34.7527 24.1184 34.7627C22.2433 34.7778 20.3737 34.5574 18.553 34.1066V6.03542C18.983 6.1346 19.4257 6.22614 19.876 6.30243C20.6147 6.42703 21.3939 6.51857 22.1528 6.57452ZM36.3471 6.79067L35.3352 7.13142C34.4042 7.44419 33.4657 7.72391 32.5221 7.97312C29.7749 8.67909 26.9514 9.04123 24.1158 9.05131C23.4556 9.05131 22.8485 9.03351 22.2616 8.99537L21.4546 8.94197V29.031V31.7188L22.1477 31.7799C22.7903 31.8358 23.4531 31.8638 24.1209 31.8638C26.3544 31.8543 28.5781 31.5664 30.7412 31.0068C32.5223 30.56 34.2552 29.9374 35.9145 29.1479L36.3471 28.9394V6.79067Z" fill="#AFB1B8"/>
</svg>
